<svg xmlns="http://www.w3.org/2000/svg" xmlns:svg="http://www.w3.org/2000/svg" xmlns:xlink="http://www.w3.org/1999/xlink" id="solaar-master" width="100" height="100" enable-background="new" version="1.1"><defs id="defs3003"><linearGradient id="gradient_blue"><stop id="stop_dark_blue" offset="0" style="stop-color:#009099;stop-opacity:1"/><stop id="stop_light_blue" offset="1" style="stop-color:#00a899;stop-opacity:.9"/></linearGradient><linearGradient id="gradient_gray"><stop id="stop_dark_gray" offset="0" style="stop-color:#848484;stop-opacity:1"/><stop id="stop_light_gray" offset="1" style="stop-color:#9c9c9c;stop-opacity:.9"/></linearGradient><linearGradient id="gradient_orange"><stop style="stop-color:#f09018;stop-opacity:1" id="stop_dark_orange" offset="0"/><stop style="stop-color:#f8a840;stop-opacity:.9" id="stop_light_orange" offset="1"/></linearGradient><linearGradient id="gradient_rect" x1="5" x2="95" y1="50" y2="50" gradientUnits="userSpaceOnUse" xlink:href="#gradient_blue"/><linearGradient id="gradient_dot" x1="37" x2="63" y1="50" y2="50" gradientUnits="userSpaceOnUse" xlink:href="#gradient_blue"/></defs><title id="title">Solaar master template</title><metadata id="metadata"/><g id="layer3"><path style="fill:url(#gradient_rect);fill-opacity:1;fill-rule:nonzero;stroke:#16161d;stroke-width:1;stroke-linecap:butt;stroke-linejoin:round;stroke-miterlimit:4;stroke-opacity:1" id="starred_rect" d="M 21.5 5.5 C 12.636 5.5 5.5 12.636 5.5 21.5 L 5.5 78.5 C 5.5 87.364 12.636 94.5 21.5 94.5 L 78.5 94.5 C 87.364 94.5 94.5 87.364 94.5 78.5 L 94.5 21.5 C 94.5 12.636 87.364 5.5 78.5 5.5 L 21.5 5.5 z M 37.6875 16.6875 L 46.71875 32.3125 C 47.784179 32.115965 48.877705 32 50 32 C 51.122295 32 52.215821 32.115965 53.28125 32.3125 L 62.3125 16.6875 L 72.6875 22.6875 L 63.65625 38.3125 C 65.078123 39.972287 66.191785 41.898777 66.9375 44 L 85 44 L 85 56 L 66.9375 56 C 66.191785 58.101223 65.078123 60.027713 63.65625 61.6875 L 72.6875 77.3125 L 62.3125 83.3125 L 53.28125 67.6875 C 52.215821 67.884035 51.122295 68 50 68 C 48.877705 68 47.784179 67.884035 46.71875 67.6875 L 37.6875 83.3125 L 27.3125 77.3125 L 36.34375 61.6875 C 34.921877 60.027713 33.808215 58.101223 33.0625 56 L 15 56 L 15 44 L 33.0625 44 C 33.808215 41.898777 34.921877 39.972287 36.34375 38.3125 L 27.3125 22.6875 L 37.6875 16.6875 z"/><path style="fill:url(#gradient_dot);fill-opacity:1;fill-rule:nonzero;stroke:#16161d;stroke-opacity:1" id="center_dot"/></g></svg>