<svg xmlns="http://www.w3.org/2000/svg" xmlns:svg="http://www.w3.org/2000/svg" xmlns:xlink="http://www.w3.org/1999/xlink" id="svg2" width="43.2" height="43.2" version="1.1"><metadata id="metadata21"/><defs id="defs4"><linearGradient id="gradient_blue"><stop style="stop-color:#009099;stop-opacity:1" id="stop7" offset="0"/><stop style="stop-color:#00a899;stop-opacity:.9" id="stop9" offset="1"/></linearGradient><linearGradient id="gradient_rect" x1="5" x2="95" y1="50" y2="50" gradientUnits="userSpaceOnUse" xlink:href="#gradient_blue"/><linearGradient id="gradient_dot" x1="37" x2="63" y1="50" y2="50" gradientUnits="userSpaceOnUse" xlink:href="#gradient_blue"/></defs><g id="g13" transform="matrix(0.48,0,0,0.48,-2.4,-2.4)"><path style="fill:url(#gradient_rect);fill-opacity:1;fill-rule:nonzero;stroke:#16161d;stroke-width:1;stroke-linecap:butt;stroke-linejoin:round;stroke-miterlimit:4;stroke-opacity:1" id="path15" d="m 21.5,5.5 c -8.864,0 -16,7.136 -16,16 l 0,57 c 0,8.864 7.136,16 16,16 l 57,0 c 8.864,0 16,-7.136 16,-16 l 0,-57 c 0,-8.864 -7.136,-16 -16,-16 l -57,0 z m 16.1875,11.1875 9.03125,15.625 C 47.784179,32.115965 48.877705,32 50,32 c 1.122295,0 2.215821,0.115965 3.28125,0.3125 l 9.03125,-15.625 10.375,6 -9.03125,15.625 C 65.078123,39.972287 66.191785,41.898777 66.9375,44 L 85,44 85,56 66.9375,56 c -0.745715,2.101223 -1.859377,4.027713 -3.28125,5.6875 l 9.03125,15.625 -10.375,6 -9.03125,-15.625 C 52.215821,67.884035 51.122295,68 50,68 48.877705,68 47.784179,67.884035 46.71875,67.6875 l -9.03125,15.625 -10.375,-6 9.03125,-15.625 C 34.921877,60.027713 33.808215,58.101223 33.0625,56 L 15,56 15,44 33.0625,44 c 0.745715,-2.101223 1.859377,-4.027713 3.28125,-5.6875 l -9.03125,-15.625 10.375,-6 z"/><path style="fill:url(#gradient_dot);fill-opacity:1;fill-rule:nonzero;stroke:#16161d;stroke-opacity:1" id="path17" d="m 62,50 a 12,12 0 1 1 -24,0 12,12 0 1 1 24,0 z"/></g></svg>